<svg width="312" height="312" viewBox="0 0 312 312" fill="none" xmlns="http://www.w3.org/2000/svg">
<g clip-path="url(#clip0_1_3)">
<path d="M279.48 32.5991C250.045 3.27722 207.721 0 156 0C104.214 0 61.826 3.315 32.4029 32.7161C2.98411 62.1051 0 104.425 0 156.152C0 207.887 2.98411 250.22 32.4151 279.619C61.8363 309.024 104.22 312.001 156 312.001C207.781 312.001 250.157 309.024 279.578 279.619C309.007 250.214 312 207.887 312 156.152C312 104.359 308.975 61.9929 279.48 32.5991Z" fill="white"/>
<path d="M246.525 96.6499C247.597 96.6499 248.489 97.5134 248.489 98.5761V213.983C248.489 215.028 247.597 215.896 246.525 215.896H221.238C220.153 215.896 219.271 215.028 219.271 213.983V98.5761C219.271 97.514 220.153 96.6499 221.238 96.6499H246.525ZM136.79 96.6499C155.865 96.6499 175.81 97.5244 185.647 107.368C195.319 117.055 196.366 136.343 196.406 155.074V213.983C196.406 215.028 195.525 215.895 194.445 215.895H169.162C168.079 215.895 167.194 215.028 167.194 213.983V154.06C167.167 143.599 166.566 132.848 161.171 127.436C156.528 122.779 147.863 121.713 138.853 121.492H93.0217C91.9468 121.492 91.0668 122.356 91.0668 123.403V213.983C91.0668 215.028 90.1759 215.896 89.0943 215.896H63.7955C62.7144 215.896 61.8448 215.028 61.8448 213.983V98.5761C61.8448 97.514 62.7138 96.6499 63.7955 96.6499H136.79ZM142.449 142.613C143.525 142.613 144.4 143.474 144.4 144.528V213.983C144.4 215.028 143.525 215.896 142.449 215.896H115.89C114.798 215.896 113.923 215.028 113.923 213.983V144.528C113.923 143.474 114.798 142.613 115.89 142.613H142.449Z" fill="black"/>
</g>
<defs>
<clipPath id="clip0_1_3">
<rect width="312" height="312" fill="white"/>
</clipPath>
</defs>
</svg>
